<svg version="1.1" id="Layer_1" xmlns="http://www.w3.org/2000/svg" xmlns:xlink="http://www.w3.org/1999/xlink" x="0px" y="0px"
	 width="100%" viewBox="0 0 1080 1080" enable-background="new 0 0 1080 1080" xml:space="preserve">
<path fill="#000000" opacity="1.000000" stroke="none" 
	d="
M981.000000,1081.000000 
	C654.000000,1081.000000 327.500000,1081.000000 1.000000,1081.000000 
	C1.000000,721.000000 1.000000,361.000000 1.000000,1.000000 
	C361.000000,1.000000 721.000000,1.000000 1081.000000,1.000000 
	C1081.000000,361.000000 1081.000000,721.000000 1081.000000,1081.000000 
	C1047.833374,1081.000000 1014.666687,1081.000000 981.000000,1081.000000 
M549.787720,552.499756 
	C549.787720,558.783630 549.787720,565.067505 549.787720,571.429810 
	C617.480347,571.429810 684.572937,571.429810 751.743896,571.429810 
	C751.743896,535.971436 751.743896,500.727570 751.743896,465.387024 
	C684.369202,465.387024 617.283936,465.387024 549.787720,465.387024 
	C549.787720,494.247162 549.787720,522.873474 549.787720,552.499756 
M372.377594,511.572510 
	C372.377594,509.264801 372.377594,506.957062 372.377594,504.649353 
	C372.809662,504.579742 373.241699,504.510132 373.673767,504.440521 
	C377.822906,511.746796 381.999664,519.037598 386.113190,526.363831 
	C390.024902,533.330688 392.198273,534.196045 400.400818,531.899536 
	C400.400818,518.637817 400.400818,505.392181 400.400818,491.980957 
	C397.861816,491.980957 395.581543,491.980957 392.890198,491.980957 
	C392.890198,501.425354 392.890198,510.741119 392.890198,520.056885 
	C388.104858,513.443542 383.547058,506.855804 380.381653,499.655945 
	C377.287262,492.617584 372.606567,490.539551 365.614899,491.884827 
	C365.475372,491.911652 365.358734,492.057373 365.094055,492.245117 
	C365.094055,505.547211 365.094055,518.945312 365.094055,532.305054 
	C367.632385,532.305054 369.878113,532.305054 372.348663,532.305054 
	C372.348663,525.499939 372.348663,519.028748 372.377594,511.572510 
M466.035126,532.557373 
	C467.019379,532.404907 468.005737,532.265015 468.987549,532.098022 
	C480.532990,530.134399 485.973419,522.466492 485.185883,509.273987 
	C484.568420,498.930634 477.431183,492.203857 466.520416,491.856934 
	C461.748322,491.705170 456.967346,491.831390 452.062073,491.831390 
	C452.062073,505.534912 452.062073,518.913635 452.062073,532.642456 
	C456.560944,532.642456 460.846130,532.642456 466.035126,532.557373 
M523.937927,507.313416 
	C522.114685,502.189117 520.291504,497.064819 518.496826,492.020630 
	C514.753906,492.020630 511.311920,492.020630 507.786407,492.020630 
	C503.106689,505.438141 498.483704,518.692932 493.712067,532.373901 
	C497.081085,532.373901 499.946289,532.373901 502.950439,532.373901 
	C503.691010,530.007996 504.155945,527.687134 505.167358,525.635742 
	C505.691223,524.573303 507.141541,523.372192 508.245300,523.297424 
	C512.328308,523.020874 516.441406,523.187317 520.402039,523.187317 
	C521.616638,526.668152 522.639038,529.598022 523.594421,532.335999 
	C526.695557,532.335999 529.420837,532.335999 532.726501,532.335999 
	C529.754456,523.920105 526.954712,515.992249 523.937927,507.313416 
M436.559601,507.850189 
	C432.455200,507.850189 428.350800,507.850189 424.138428,507.850189 
	C424.138428,504.463593 424.138428,501.745392 424.138428,498.548279 
	C429.032623,498.548279 433.602264,498.548279 438.282745,498.548279 
	C438.282745,496.118683 438.282745,494.176666 438.282745,492.076050 
	C430.512421,492.076050 422.939575,492.076050 415.358795,492.076050 
	C415.358795,505.593658 415.358795,518.849426 415.358795,532.331055 
	C423.116425,532.331055 430.636749,532.331055 438.047363,532.331055 
	C438.047363,529.751709 438.047363,527.549744 438.047363,525.033203 
	C433.163422,525.033203 428.722351,525.033203 424.115723,525.033203 
	C424.115723,521.482300 424.115723,518.262817 424.115723,514.585205 
	C428.635651,514.585205 432.876984,514.585205 437.544891,514.585205 
	C437.431946,512.169006 437.341248,510.228271 436.559601,507.850189 
z"/>
<path fill="#FCFCFC" opacity="1.000000" stroke="none" 
	d="
M549.787720,551.999756 
	C549.787720,522.873474 549.787720,494.247162 549.787720,465.387024 
	C617.283936,465.387024 684.369202,465.387024 751.743896,465.387024 
	C751.743896,500.727570 751.743896,535.971436 751.743896,571.429810 
	C684.572937,571.429810 617.480347,571.429810 549.787720,571.429810 
	C549.787720,565.067505 549.787720,558.783630 549.787720,551.999756 
M634.811523,532.334900 
	C635.984741,526.982056 639.018311,524.574890 644.684265,525.635559 
	C646.936890,526.057190 649.381348,526.003906 651.656921,525.647156 
	C657.830505,524.679077 661.739990,526.707153 663.156311,533.100464 
	C663.724609,535.665710 665.085266,537.832581 668.775940,536.264038 
	C667.381897,533.103027 666.021118,529.942078 664.599609,526.808716 
	C660.410583,517.575256 656.252502,508.326996 651.963135,499.140137 
	C650.519287,496.047729 647.336304,495.561005 646.069519,498.265045 
	C640.177185,510.842957 634.499573,523.521423 628.716125,536.227539 
	C632.637817,537.868286 633.553162,535.442688 634.811523,532.334900 
M618.504517,499.929749 
	C610.285522,494.389313 601.130066,497.647858 592.014099,496.552979 
	C592.014099,509.410706 592.047852,521.675659 591.992920,533.940247 
	C591.977051,537.485596 593.753357,537.069946 596.320557,536.146118 
	C596.320557,532.057251 596.320557,528.115906 596.320557,523.642700 
	C600.577454,523.642700 604.524109,523.832825 608.445312,523.598145 
	C614.337219,523.245544 619.733398,521.544128 622.137512,515.471863 
	C624.329773,509.934692 623.550537,504.725464 618.504517,499.929749 
M701.548096,504.985596 
	C698.724060,509.598877 695.899963,514.212158 692.824280,519.236450 
	C688.600708,512.204407 684.882996,505.731171 680.830017,499.475128 
	C679.870911,497.994629 677.785645,497.243713 676.218384,496.157196 
	C675.906921,496.565063 675.595459,496.972961 675.283997,497.380859 
	C676.002625,498.630585 676.775513,499.852570 677.431458,501.134399 
	C682.962280,511.943115 693.285645,520.839722 690.905212,534.881653 
	C690.812927,535.426270 692.952332,536.349243 694.051880,537.095886 
	C693.889160,527.831604 695.223083,520.366516 700.383545,513.529907 
	C704.183533,508.495483 706.992310,502.712860 710.552917,496.743866 
	C704.224182,496.391266 704.377502,501.751038 701.548096,504.985596 
z"/>
<path fill="#F3F3F3" opacity="1.000000" stroke="none" 
	d="
M372.363129,512.065063 
	C372.348663,519.028748 372.348663,525.499939 372.348663,532.305054 
	C369.878113,532.305054 367.632385,532.305054 365.094055,532.305054 
	C365.094055,518.945312 365.094055,505.547211 365.094055,492.245117 
	C365.358734,492.057373 365.475372,491.911652 365.614899,491.884827 
	C372.606567,490.539551 377.287262,492.617584 380.381653,499.655945 
	C383.547058,506.855804 388.104858,513.443542 392.890198,520.056885 
	C392.890198,510.741119 392.890198,501.425354 392.890198,491.980957 
	C395.581543,491.980957 397.861816,491.980957 400.400818,491.980957 
	C400.400818,505.392181 400.400818,518.637817 400.400818,531.899536 
	C392.198273,534.196045 390.024902,533.330688 386.113190,526.363831 
	C381.999664,519.037598 377.822906,511.746796 373.673767,504.440521 
	C373.241699,504.510132 372.809662,504.579742 372.377594,504.649353 
	C372.377594,506.957062 372.377594,509.264801 372.363129,512.065063 
z"/>
<path fill="#F3F3F3" opacity="1.000000" stroke="none" 
	d="
M465.583252,532.599915 
	C460.846130,532.642456 456.560944,532.642456 452.062073,532.642456 
	C452.062073,518.913635 452.062073,505.534912 452.062073,491.831390 
	C456.967346,491.831390 461.748322,491.705170 466.520416,491.856934 
	C477.431183,492.203857 484.568420,498.930634 485.185883,509.273987 
	C485.973419,522.466492 480.532990,530.134399 468.987549,532.098022 
	C468.005737,532.265015 467.019379,532.404907 465.583252,532.599915 
M460.388367,517.394653 
	C460.388367,519.848022 460.388367,522.301331 460.388367,524.841064 
	C466.187775,525.684448 471.205200,525.588440 474.498016,520.423157 
	C477.202454,516.180908 476.958801,506.588684 474.025665,502.798553 
	C470.485992,498.224701 465.652252,498.475830 460.388367,499.232391 
	C460.388367,505.186737 460.388367,510.805084 460.388367,517.394653 
z"/>
<path fill="#F3F3F3" opacity="1.000000" stroke="none" 
	d="
M524.046509,507.688904 
	C526.954712,515.992249 529.754456,523.920105 532.726501,532.335999 
	C529.420837,532.335999 526.695557,532.335999 523.594421,532.335999 
	C522.639038,529.598022 521.616638,526.668152 520.402039,523.187317 
	C516.441406,523.187317 512.328308,523.020874 508.245300,523.297424 
	C507.141541,523.372192 505.691223,524.573303 505.167358,525.635742 
	C504.155945,527.687134 503.691010,530.007996 502.950439,532.373901 
	C499.946289,532.373901 497.081085,532.373901 493.712067,532.373901 
	C498.483704,518.692932 503.106689,505.438141 507.786407,492.020630 
	C511.311920,492.020630 514.753906,492.020630 518.496826,492.020630 
	C520.291504,497.064819 522.114685,502.189117 524.046509,507.688904 
M508.915955,513.272339 
	C508.704559,514.045288 508.493164,514.818237 508.226013,515.795105 
	C511.603546,515.795105 514.732544,515.795105 518.363159,515.795105 
	C516.736206,510.306885 515.183594,505.069427 513.251526,498.552094 
	C511.619568,504.012970 510.353607,508.248993 508.915955,513.272339 
z"/>
<path fill="#F3F3F3" opacity="1.000000" stroke="none" 
	d="
M436.905060,508.068848 
	C437.341248,510.228271 437.431946,512.169006 437.544891,514.585205 
	C432.876984,514.585205 428.635651,514.585205 424.115723,514.585205 
	C424.115723,518.262817 424.115723,521.482300 424.115723,525.033203 
	C428.722351,525.033203 433.163422,525.033203 438.047363,525.033203 
	C438.047363,527.549744 438.047363,529.751709 438.047363,532.331055 
	C430.636749,532.331055 423.116425,532.331055 415.358795,532.331055 
	C415.358795,518.849426 415.358795,505.593658 415.358795,492.076050 
	C422.939575,492.076050 430.512421,492.076050 438.282745,492.076050 
	C438.282745,494.176666 438.282745,496.118683 438.282745,498.548279 
	C433.602264,498.548279 429.032623,498.548279 424.138428,498.548279 
	C424.138428,501.745392 424.138428,504.463593 424.138428,507.850189 
	C428.350800,507.850189 432.455200,507.850189 436.905060,508.068848 
z"/>
<path fill="#000000" opacity="1.000000" stroke="none" 
	d="
M634.641235,532.677856 
	C633.553162,535.442688 632.637817,537.868286 628.716125,536.227539 
	C634.499573,523.521423 640.177185,510.842957 646.069519,498.265045 
	C647.336304,495.561005 650.519287,496.047729 651.963135,499.140137 
	C656.252502,508.326996 660.410583,517.575256 664.599609,526.808716 
	C666.021118,529.942078 667.381897,533.103027 668.775940,536.264038 
	C665.085266,537.832581 663.724609,535.665710 663.156311,533.100464 
	C661.739990,526.707153 657.830505,524.679077 651.656921,525.647156 
	C649.381348,526.003906 646.936890,526.057190 644.684265,525.635559 
	C639.018311,524.574890 635.984741,526.982056 634.641235,532.677856 
M652.803467,509.763000 
	C651.523865,507.127533 650.244263,504.492065 648.670166,501.250153 
	C645.387024,508.490692 642.424866,515.023315 639.208557,522.116394 
	C641.088379,522.116394 642.214050,522.116394 643.339722,522.116394 
	C648.118408,522.116394 652.897156,522.116394 658.305542,522.116394 
	C656.418640,517.923950 654.741943,514.198730 652.803467,509.763000 
z"/>
<path fill="#000000" opacity="1.000000" stroke="none" 
	d="
M618.793945,500.165649 
	C623.550537,504.725464 624.329773,509.934692 622.137512,515.471863 
	C619.733398,521.544128 614.337219,523.245544 608.445312,523.598145 
	C604.524109,523.832825 600.577454,523.642700 596.320557,523.642700 
	C596.320557,528.115906 596.320557,532.057251 596.320557,536.146118 
	C593.753357,537.069946 591.977051,537.485596 591.992920,533.940247 
	C592.047852,521.675659 592.014099,509.410706 592.014099,496.552979 
	C601.130066,497.647858 610.285522,494.389313 618.793945,500.165649 
M616.496033,517.012329 
	C621.857849,509.051910 618.797974,501.477875 609.456421,500.298065 
	C605.255493,499.767517 600.931885,500.208160 596.406250,500.208160 
	C596.406250,506.864105 596.406250,513.246094 596.406250,520.116577 
	C603.099426,519.493103 609.847290,521.782593 616.496033,517.012329 
z"/>
<path fill="#000000" opacity="1.000000" stroke="none" 
	d="
M701.730957,504.670135 
	C704.377502,501.751038 704.224182,496.391266 710.552917,496.743866 
	C706.992310,502.712860 704.183533,508.495483 700.383545,513.529907 
	C695.223083,520.366516 693.889160,527.831604 694.051880,537.095886 
	C692.952332,536.349243 690.812927,535.426270 690.905212,534.881653 
	C693.285645,520.839722 682.962280,511.943115 677.431458,501.134399 
	C676.775513,499.852570 676.002625,498.630585 675.283997,497.380859 
	C675.595459,496.972961 675.906921,496.565063 676.218384,496.157196 
	C677.785645,497.243713 679.870911,497.994629 680.830017,499.475128 
	C684.882996,505.731171 688.600708,512.204407 692.824280,519.236450 
	C695.899963,514.212158 698.724060,509.598877 701.730957,504.670135 
z"/>
<path fill="#000000" opacity="1.000000" stroke="none" 
	d="
M460.388367,516.909058 
	C460.388367,510.805084 460.388367,505.186737 460.388367,499.232391 
	C465.652252,498.475830 470.485992,498.224701 474.025665,502.798553 
	C476.958801,506.588684 477.202454,516.180908 474.498016,520.423157 
	C471.205200,525.588440 466.187775,525.684448 460.388367,524.841064 
	C460.388367,522.301331 460.388367,519.848022 460.388367,516.909058 
z"/>
<path fill="#000000" opacity="1.000000" stroke="none" 
	d="
M509.001831,512.878662 
	C510.353607,508.248993 511.619568,504.012970 513.251526,498.552094 
	C515.183594,505.069427 516.736206,510.306885 518.363159,515.795105 
	C514.732544,515.795105 511.603546,515.795105 508.226013,515.795105 
	C508.493164,514.818237 508.704559,514.045288 509.001831,512.878662 
z"/>
<path fill="#F3F3F3" opacity="1.000000" stroke="none" 
	d="
M652.934326,510.118225 
	C654.741943,514.198730 656.418640,517.923950 658.305542,522.116394 
	C652.897156,522.116394 648.118408,522.116394 643.339722,522.116394 
	C642.214050,522.116394 641.088379,522.116394 639.208557,522.116394 
	C642.424866,515.023315 645.387024,508.490692 648.670166,501.250153 
	C650.244263,504.492065 651.523865,507.127533 652.934326,510.118225 
z"/>
<path fill="#F3F3F3" opacity="1.000000" stroke="none" 
	d="
M616.178833,517.249146 
	C609.847290,521.782593 603.099426,519.493103 596.406250,520.116577 
	C596.406250,513.246094 596.406250,506.864105 596.406250,500.208160 
	C600.931885,500.208160 605.255493,499.767517 609.456421,500.298065 
	C618.797974,501.477875 621.857849,509.051910 616.178833,517.249146 
z"/>
</svg>